<?xml version="1.0" standalone="no"?>
<!DOCTYPE svg PUBLIC "-//W3C//DTD SVG 20010904//EN"
 "http://www.w3.org/TR/2001/REC-SVG-20010904/DTD/svg10.dtd">
<svg version="1.0" xmlns="http://www.w3.org/2000/svg"
 width="700.000000pt" height="700.000000pt" viewBox="0 0 700.000000 700.000000"
 preserveAspectRatio="xMidYMid meet">
<metadata>
Created by potrace 1.14, written by Peter Selinger 2001-2017
</metadata>
<g transform="translate(0.000000,700.000000) scale(0.100000,-0.100000)"
fill="#000000" stroke="none">
<path d="M2445 5094 c-577 -872 -1051 -1591 -1053 -1598 -3 -15 2095 -3186
2108 -3186 13 0 2111 3171 2108 3186 -4 16 -2101 3183 -2108 3183 -3 0 -477
-713 -1055 -1585z m2065 -89 c550 -830 999 -1514 996 -1520 -7 -19 -2001
-3025 -2006 -3025 -10 0 -2005 3020 -2004 3034 2 19 1997 3027 2006 3024 4 -2
458 -682 1008 -1513z"/>
<path d="M3342 6013 c-82 -126 -479 -725 -882 -1333 -403 -608 -735 -1111
-737 -1117 -4 -10 248 -13 1238 -13 l1244 0 323 323 c177 177 322 326 322 331
0 13 -1342 2036 -1351 2036 -4 0 -74 -102 -157 -227z m641 -1046 l477 -722
-192 -192 -193 -193 -893 0 c-492 0 -892 4 -890 8 7 18 1203 1821 1208 1821 3
0 220 -325 483 -722z"/>
<path d="M4736 3833 c9 -16 56 -85 102 -155 l85 -128 179 0 c98 0 178 3 178 7
0 4 -44 74 -97 155 l-98 148 -184 0 -183 0 18 -27z"/>
<path d="M1722 3420 c2 -5 311 -475 688 -1044 l685 -1035 113 -1 112 0 0 -170
0 -170 87 -130 c47 -72 89 -130 93 -130 4 0 46 58 93 130 l87 130 0 170 0 170
113 0 112 1 685 1035 c377 569 687 1039 688 1045 2 5 -663 9 -1778 9 -1149 0
-1780 -3 -1778 -10z m2982 -312 c-4 -7 -221 -336 -482 -730 l-475 -718 -41 0
-41 0 -80 140 c-44 77 -82 140 -85 140 -3 0 -41 -63 -85 -140 l-80 -140 -41 0
-41 0 -475 718 c-261 394 -478 723 -482 730 -6 9 238 12 1204 12 966 0 1210
-3 1204 -12z"/>
</g>
</svg>
