<svg xmlns="http://www.w3.org/2000/svg" x="0px" y="0px" viewBox="0 0 864 864" enable-background="new 0 0 864 864"><style>.fs0,.ls0{fill:#444}</style><g transform="matrix(.91505 0 0 .91505 36.6987341772 36.6987341772)"><path class="ls0" d="M140.7,625.8l50.4-21.9l157.6-68.4l5.8-2.5c1.5-0.7,2.9-1.4,4.3-2.1c2.5-1.3,4.9-2.7,7.2-4.1	c22.7-14,39.8-35.7,48.2-61.2c2.1-6.4,3.6-12.9,4.6-19.4c0.8-5.4,1.2-10.8,1.2-16.2V257.8v-3.3c-0.5-42.8-21.7-80.5-54-103.8	c-2.6-1.9-5.3-3.7-8-5.3c-20.2-12.4-44-19.4-69.5-19.1c-12.5,0.2-24.9,2.1-36.8,5.8h0c-27.6,16.7-52.8,37-74.7,60.4	C118.1,255.1,82.1,339.3,82.1,432c0,52.3,11.5,101.9,32.1,146.5C121.8,595,130.6,610.8,140.7,625.8z M167.5,299	c13.7-27.2,31.8-52.4,53.8-74.8c0.5-0.5,0.9-1,1.4-1.4c15.5-15.5,32.4-29.1,50.5-40.6c5.2-1.2,10.6-1.8,15.9-1.9c0.3,0,0.7,0,1,0	c20.1,0,39,7.8,53.3,21.9c14.2,14,22.2,32.7,22.6,52.7c0,0.1,0,0.2,0,0.4c0,1,0,1.9,0,2.9v75.1v28.4v68.3c0,6.3-1,12.6-3,18.8	c-4.9,14.9-15.2,27-29.1,34.3c-0.6,0.3-1.1,0.6-1.7,0.8c0,0,0,0,0,0c-1.3,0.6-2.7,1.2-4.1,1.8l-86.9,37.7L163.6,557	c-18-38.6-27.5-81.1-27.5-125C136.1,385,147,339.7,167.5,299z"/><path class="ls0" d="M364.2,692.5c-19.7,8-32.1,18.4-55.4,19.6c-12.2,0.6-19.8,0.5-24.3,0.2c-4.5-1.2-9.1-2.6-13.7-4.2	c17.7,2.8,67-9,65.6-68c-18.6,4.3-29.6,15.2-36.6,26.9c-6.3,10.6-15.3,43.5-46.9,34.1c-11.8-5.2-24-11.8-36.6-20.1	c10.3,2.2,29.8,3.2,48.8-13c22.9-19.6,23.5-46.1,23.5-46.1s-14.3,2.4-30.5,15.5s-13.7,21.3-30.5,32c-10.9,7-20.7,4-26,1.1	c-14.3-10.8-29-24-44-39.9c-4.9,2-10.9,4.9-10.9,4.9s16.3,23.4,50.6,47.5c0,0,0,0,0,0c16.8,15,10.2,39.7,16.2,57.6	c6,18,20.8,24.6,20.8,24.6s7.5-13.7,2-40c-2.2-10.3-7.5-19.2-13.1-26.1c8.6,4.7,18,9.3,28.2,13.5c7.2,2.9,14.2,5.4,21.1,7.5	c10.3,10.3,16.4,26.8,20.3,38c4.4,12.9,13.7,22.4,30.1,25.7c0.3-31.6-15-49.2-25.3-57.5c0.9,0.2,1.7,0.3,2.6,0.5	c10.9,5.9,36.5,18.2,57.1,16.9c28.7-1.8,52-15.9,62.7-45.4C403.7,687,374.8,688.2,364.2,692.5z"/><path class="ls0" d="M781.9,432c0-55.3-12.8-107.6-35.7-154.1c-8-16.4-17.3-32-27.7-46.8l-50.7,22L498,326.8l-54,23.4v58.9v172.6	v46.4v99.6v54c18.4-0.6,36.4-2.6,54-6c31.7-6,61.8-16.4,89.8-30.3c14.2,12.6,29.7,22.8,48.1,26.2c38.1,7,65.2-12.2,68.2-14.4	l-13.4-18l-13.4-18l0.2-0.2c-0.6,0.4-14.4,9.9-33.4,6.4c-4.8-0.9-9.7-3.1-14.6-6.4C721.5,657.9,781.9,552,781.9,432z M498,667.7	c19,7.3,34.6,21.1,49.9,36.8c-16.1,6.8-32.7,12.2-49.9,16.1V667.7z M589.3,682.7c-14.5-15.4-30.8-32.1-50.6-44.7	c-13.2-8.3-26.7-14.2-40.7-17.5V385.6l198.7-86.3c20.4,40.7,31.2,85.8,31.2,132.6c0,79-30.8,153.3-86.7,209.2	C625.3,657.1,607.9,671,589.3,682.7z"/><path class="ls0" d="M498.7,164c19.3-7.8,31.5-18.1,54.3-19.2c11.9-0.6,19.4-0.5,23.8-0.2c4.4,1.2,8.9,2.5,13.4,4.1	c-17.3-2.7-65.7,8.8-64.4,66.7c18.2-4.2,29-14.9,35.8-26.4c6.2-10.4,15-42.7,46-33.4c11.6,5.1,23.6,11.6,35.9,19.7	c-10.1-2.2-29.2-3.2-47.8,12.8c-22.5,19.2-23,45.2-23,45.2s14-2.4,29.9-15.2c15.9-12.8,13.4-20.9,29.9-31.4	c10.7-6.8,20.3-3.9,25.5-1.1c14,10.6,28.4,23.5,43.1,39.2c4.8-1.9,10.7-4.8,10.7-4.8s-16-22.9-49.6-46.6c0,0,0,0,0,0	c-16.5-14.7-10-38.9-15.9-56.5S626,92.7,626,92.7s-7.4,13.5-2,39.2c2.1,10.1,7.3,18.8,12.9,25.6c-8.5-4.6-17.6-9.1-27.6-13.2	c-7-2.9-13.9-5.3-20.7-7.4c-10.1-10.1-16.1-26.2-19.9-37.2c-4.3-12.6-13.5-21.9-29.5-25.2c-0.3,30.9,14.7,48.2,24.8,56.4	c-0.9-0.2-1.7-0.3-2.6-0.5c-10.7-5.7-35.8-17.8-56-16.6c-28.1,1.7-51,15.5-61.4,44.5C460,169.3,488.4,168.1,498.7,164z"/></g><g><path class="fs0" d="M681.8,182.2C615.1,115.4,526.4,78.7,432,78.7s-183.1,36.7-249.8,103.5C115.4,248.9,78.7,337.6,78.7,432	s36.7,183.1,103.5,249.8c66.7,66.7,155.4,103.5,249.8,103.5c94.4,0,183.1-36.7,249.8-103.5c66.7-66.7,103.5-155.4,103.5-249.8	C785.3,337.6,748.6,248.9,681.8,182.2z M669.1,669.1c-63.3,63.3-147.5,98.2-237.1,98.2s-173.8-34.9-237.1-98.2S96.7,521.6,96.7,432	s34.9-173.8,98.2-237.1S342.4,96.7,432,96.7s173.8,34.9,237.1,98.2s98.2,147.5,98.2,237.1S732.4,605.8,669.1,669.1z"/></g></svg>