<svg xmlns="http://www.w3.org/2000/svg" x="0px" y="0px" viewBox="0 0 864 864" enable-background="new 0 0 864 864"><style>.fs0,.ls0{fill:#231f20}</style><g><path class="ls0" d="M432,93.5l-18.5,27.9l0,0l-25.7,38.8l-70,105.6l-24.4,36.9l-56.7,85.5L212.2,425h44.2h262.3l36.9-36.8	l16.5-16.5l26.6-26.6L578,313.8l-7.4-11.1l-24.4-36.9l-70-105.6l-24.8-37.5l0,0L432,93.5z M502,265.8l24.4,36.9l25,37.7l-47.9,47.9	H432H280.9l56.7-85.5l24.4-36.9l47.9-72.2l22.1-33.4l22.1,33.4L502,265.8z"/><path class="ls0" d="M607.5 425L651.8 425 627.3 388.2 583.1 388.2z"/><path class="ls0" d="M256.5,441.2h-44.2l24.4,36.9l120.3,181.5l25.8,38.9h6.6h20.5v41l0,0l0,0.1l22.1,33.3l22.1-33.3v0l0-0.1l0,0	v-41h20.5h6.6l25.8-38.9L627.3,478l24.4-36.9h-44.2H256.5z M462.8,659.5h-10.6l-20.2-35l-20.2,35h-10.6L280.9,478h302.2L462.8,659.5	z"/></g><g><path class="fs0" d="M432,39.8L171.3,433.1L432,826.4l260.7-393.3L432,39.8z M182.9,433.1L432,57.3l249.1,375.8L432,808.9	L182.9,433.1z"/></g></svg>